<?xml version="1.0" encoding="UTF-8" standalone="no"?>
<!-- Created with Inkscape (http://www.inkscape.org/) -->

<svg
   width="1920"
   height="1080"
   viewBox="0 0 508 285.75"
   version="1.1"
   id="svg1"
   inkscape:version="1.3.2 (091e20e, 2023-11-25, custom)"
   sodipodi:docname="splash.svg"
   inkscape:export-filename="splash.png"
   inkscape:export-xdpi="96"
   inkscape:export-ydpi="96"
   xmlns:inkscape="http://www.inkscape.org/namespaces/inkscape"
   xmlns:sodipodi="http://sodipodi.sourceforge.net/DTD/sodipodi-0.dtd"
   xmlns:xlink="http://www.w3.org/1999/xlink"
   xmlns="http://www.w3.org/2000/svg"
   xmlns:svg="http://www.w3.org/2000/svg">
  <sodipodi:namedview
     id="namedview1"
     pagecolor="#ffffff"
     bordercolor="#999999"
     borderopacity="1"
     inkscape:showpageshadow="2"
     inkscape:pageopacity="0"
     inkscape:pagecheckerboard="0"
     inkscape:deskcolor="#d1d1d1"
     inkscape:document-units="mm"
     inkscape:zoom="0.37014941"
     inkscape:cx="933.40686"
     inkscape:cy="479.53609"
     inkscape:window-width="1920"
     inkscape:window-height="1009"
     inkscape:window-x="-8"
     inkscape:window-y="-8"
     inkscape:window-maximized="1"
     inkscape:current-layer="layer1" />
  <defs
     id="defs1">
    <linearGradient
       id="linearGradient1"
       inkscape:collect="always">
      <stop
         style="stop-color:#610052;stop-opacity:1;"
         offset="0"
         id="stop1" />
      <stop
         style="stop-color:#10000e;stop-opacity:1;"
         offset="1"
         id="stop2" />
    </linearGradient>
    <linearGradient
       inkscape:collect="always"
       xlink:href="#linearGradient1"
       id="linearGradient2"
       x1="15.01083"
       y1="62.187725"
       x2="426.02167"
       y2="188.70758"
       gradientUnits="userSpaceOnUse" />
    <filter
       inkscape:collect="always"
       style="color-interpolation-filters:sRGB"
       id="filter11"
       x="-0.024112394"
       y="-0.21701153"
       width="1.0482248"
       height="1.4340231">
      <feGaussianBlur
         inkscape:collect="always"
         stdDeviation="2.1683377"
         id="feGaussianBlur11" />
    </filter>
    <filter
       inkscape:collect="always"
       style="color-interpolation-filters:sRGB"
       id="filter12"
       x="-0.013685413"
       y="-0.21701153"
       width="1.0273708"
       height="1.4340231">
      <feGaussianBlur
         inkscape:collect="always"
         stdDeviation="2.1683377"
         id="feGaussianBlur12" />
    </filter>
    <filter
       inkscape:collect="always"
       style="color-interpolation-filters:sRGB"
       id="filter13"
       x="-0.051311665"
       y="-0.40316308"
       width="1.1026233"
       height="1.8063262">
      <feGaussianBlur
         inkscape:collect="always"
         stdDeviation="8.7658512"
         id="feGaussianBlur13" />
    </filter>
  </defs>
  <g
     inkscape:label="Ebene 1"
     inkscape:groupmode="layer"
     id="layer1">
    <rect
       style="fill:url(#linearGradient2);stroke-width:1.32292;stroke-linecap:square;paint-order:fill markers stroke;fill-opacity:1"
       id="rect1"
       width="508"
       height="285.75"
       x="-3.0567048e-07"
       y="4.6352406e-16" />
    <path
       d="M 65.301375,185.30357 H 72.1529 v 10.27729 h 3.425762 v -3.42577 h 3.425763 v 3.42577 h 3.425762 v -10.27729 h 6.851525 v 20.55457 H 85.85595 v 3.42577 h -3.425763 v -3.42577 h -3.425762 v -3.42576 h -3.425763 v 3.42576 H 72.1529 v 3.42577 h -3.425762 v -3.42577 h -3.425763 z m 34.257624,3.42576 v 17.12881 h 10.277291 v -17.12881 z m -6.851524,0 h 3.425762 v -3.42576 h 17.128813 v 3.42576 h 3.42576 v 17.12881 h -3.42576 v 3.42577 H 96.133237 v -3.42577 h -3.425762 z m 34.257615,0 v 10.27729 h 6.85153 v -3.42576 h 3.42576 v -6.85153 z m -6.85152,-3.42576 h 20.55457 v 3.42576 h 3.42576 v 10.27729 h -6.85152 v 3.42576 h 3.42576 v 3.42576 h 3.42576 v 3.42577 h -10.27728 v -3.42577 h -3.42576 v -3.42576 h -3.42577 v 6.85153 h -6.85152 z m 27.4061,0 h 6.85152 v 10.27729 h 3.42577 v -3.42577 h 3.42576 v -3.42576 h 3.42576 v -3.42576 h 6.85153 v 3.42576 h -3.42577 v 3.42576 h -3.42576 v 3.42577 h -3.42576 v 3.42576 h 3.42576 v 3.42576 h 3.42576 v 3.42576 h 3.42577 v 3.42577 h -10.27729 v -3.42577 h -3.42576 v -3.42576 h -3.42577 v 6.85153 h -6.85152 z m 61.66373,6.85152 v 6.85153 h 10.27728 v -6.85153 h -3.42576 v -3.42576 h -3.42576 v 3.42576 z m -6.85153,0 h 3.42576 v -3.42576 h 3.42577 v -3.42576 h 10.27728 v 3.42576 h 3.42577 v 3.42576 h 3.42576 v 17.12882 h -6.85153 v -6.85153 H 209.1834 v 6.85153 h -6.85153 z m 27.4061,-6.85152 h 6.85152 v 3.42576 h 3.42577 v 3.42576 h 3.42576 v 3.42577 h 3.42576 v -10.27729 h 6.85153 v 23.98034 h -6.85153 v -3.42577 h -3.42576 v -3.42576 h -3.42576 v -3.42576 h -3.42577 v 10.27729 h -6.85152 z m 34.25762,3.42576 v 17.12881 h 6.85153 v -3.42576 h 3.42576 v -10.27729 h -3.42576 v -3.42576 z m -6.85152,-3.42576 h 17.12881 v 3.42576 h 3.42576 v 3.42576 h 3.42576 v 10.27729 h -3.42576 v 3.42576 h -3.42576 v 3.42577 h -17.12881 z m 65.08948,0 v 10.27729 h 6.85152 v -10.27729 h 6.85153 v 10.27729 h -3.42576 v 3.42576 h -3.42577 v 10.27729 h -6.85152 v -10.27729 h -3.42576 v -3.42576 h -3.42577 v -10.27729 z m 41.10916,0 v 3.42576 h -6.85152 v 17.12881 h 6.85152 v 3.42577 h -20.55457 v -3.42577 h 6.85152 v -17.12881 h -6.85152 v -3.42576 z m 27.4061,0 v 3.42576 h -13.70305 v 6.85153 h 10.27729 v 3.42576 h -10.27729 v 6.85152 h 13.70305 v 3.42577 h -20.55458 v -23.98034 z m 13.70305,0 v 20.55457 h 13.70305 v 3.42577 h -20.55458 v -23.98034 z m 23.98033,3.42576 v 17.12881 h 6.85153 v -3.42576 h 3.42576 v -10.27729 h -3.42576 v -3.42576 z m -6.85152,-3.42576 h 17.12881 v 3.42576 h 3.42576 v 3.42576 h 3.42576 v 10.27729 h -3.42576 v 3.42576 h -3.42576 v 3.42577 h -17.12881 z"
       id="text2-75"
       style="font-size:27.4061px;line-height:1.25;font-family:'Press Start';-inkscape-font-specification:'Press Start, Normal';letter-spacing:0px;word-spacing:0px;mix-blend-mode:normal;fill:#ffcaf4;fill-opacity:1;stroke-width:0.264583;filter:url(#filter12)"
       aria-label="WORK AND YIELD" />
    <text
       xml:space="preserve"
       style="font-style:normal;font-variant:normal;font-weight:normal;font-stretch:normal;font-size:27.4061px;line-height:1.25;font-family:'Press Start';-inkscape-font-specification:'Press Start, Normal';font-variant-ligatures:normal;font-variant-caps:normal;font-variant-numeric:normal;font-variant-east-asian:normal;letter-spacing:0px;word-spacing:0px;fill:#bbbbbb;stroke-width:0.264583;fill-opacity:1"
       x="65.301369"
       y="209.28391"
       id="text2"><tspan
         sodipodi:role="line"
         style="font-style:normal;font-variant:normal;font-weight:normal;font-stretch:normal;font-size:27.4061px;font-family:'Press Start';-inkscape-font-specification:'Press Start, Normal';font-variant-ligatures:normal;font-variant-caps:normal;font-variant-numeric:normal;font-variant-east-asian:normal;fill:#bbbbbb;stroke-width:0.264583;fill-opacity:1"
         x="65.301369"
         y="209.28391"
         id="tspan10">WORK AND YIELD</tspan></text>
    <path
       d="m 154.37119,156.57107 v 6.85152 h 10.27728 v -6.85152 h -3.42576 v -3.42576 h -3.42576 v 3.42576 z m -6.85153,0 h 3.42577 v -3.42576 h 3.42576 v -3.42577 h 10.27728 v 3.42577 h 3.42577 v 3.42576 H 171.5 v 17.12881 h -6.85153 v -6.85152 h -10.27728 v 6.85152 h -6.85153 z m 27.4061,10.27729 h 6.85153 v 3.42576 h 10.27728 v -6.85153 h -13.70305 v -3.42576 h -3.42576 v -6.85152 h 3.42576 v -3.42577 h 13.70305 v 3.42577 h 3.42577 v 3.42576 h -6.85153 v -3.42576 h -6.85152 v 6.85152 h 13.70305 v 3.42576 h 3.42576 v 6.85153 h -3.42576 v 3.42576 h -17.12882 v -3.42576 h -3.42576 z m 51.38644,-17.12882 v 3.42577 h -6.85153 v 20.55457 h -6.85152 v -20.55457 h -6.85153 v -3.42577 z m 27.4061,0 v 3.42577 h -13.70305 v 6.85152 h 10.27729 v 3.42576 h -10.27729 v 6.85153 h 13.70305 v 3.42576 h -20.55457 v -23.98034 z m 10.27729,3.42577 v 10.27728 h 6.85152 v -3.42576 h 3.42576 v -6.85152 z m -6.85153,-3.42577 h 20.55457 v 3.42577 h 3.42577 v 10.27728 h -6.85153 v 3.42577 h 3.42576 v 3.42576 h 3.42577 v 3.42576 h -10.27729 v -3.42576 h -3.42576 v -3.42576 h -3.42576 v 6.85152 h -6.85153 z m 34.25763,3.42577 v 17.12881 h 10.27729 v -17.12881 z m -6.85152,0 h 3.42576 v -3.42577 h 17.12881 v 3.42577 h 3.42576 v 17.12881 h -3.42576 v 3.42576 h -17.12881 v -3.42576 h -3.42576 z m 51.38643,-3.42577 v 3.42577 h -6.85153 v 17.12881 h 6.85153 v 3.42576 h -20.55457 v -3.42576 h 6.85152 v -17.12881 h -6.85152 v -3.42577 z m 10.27728,3.42577 v 17.12881 h 6.85153 v -3.42576 h 3.42576 v -10.27729 h -3.42576 v -3.42576 z m -6.85152,-3.42577 h 17.12881 v 3.42577 h 3.42576 v 3.42576 h 3.42577 v 10.27729 h -3.42577 v 3.42576 h -3.42576 v 3.42576 h -17.12881 z"
       id="text2-0-1"
       style="font-size:27.4061px;line-height:1.25;font-family:'Press Start';-inkscape-font-specification:'Press Start, Normal';letter-spacing:0px;word-spacing:0px;mix-blend-mode:normal;fill:#ffcaf4;fill-opacity:1;stroke-width:0.264583;filter:url(#filter11)"
       aria-label="ASTEROID" />
    <text
       xml:space="preserve"
       style="font-style:normal;font-variant:normal;font-weight:normal;font-stretch:normal;font-size:27.4061px;line-height:1.25;font-family:'Press Start';-inkscape-font-specification:'Press Start, Normal';font-variant-ligatures:normal;font-variant-caps:normal;font-variant-numeric:normal;font-variant-east-asian:normal;letter-spacing:0px;word-spacing:0px;fill:#bbbbbb;stroke-width:0.264583;fill-opacity:1"
       x="147.51967"
       y="173.69987"
       id="text2-0"><tspan
         sodipodi:role="line"
         style="font-style:normal;font-variant:normal;font-weight:normal;font-stretch:normal;font-size:27.4061px;font-family:'Press Start';-inkscape-font-specification:'Press Start, Normal';font-variant-ligatures:normal;font-variant-caps:normal;font-variant-numeric:normal;font-variant-east-asian:normal;fill:#bbbbbb;stroke-width:0.264583;fill-opacity:1"
         x="147.51967"
         y="173.69987"
         id="tspan9-8">ASTEROID</tspan></text>
    <text
       xml:space="preserve"
       style="font-style:normal;font-variant:normal;font-weight:normal;font-stretch:normal;font-size:59.6371px;line-height:1.25;font-family:'Press Start';-inkscape-font-specification:'Press Start, Normal';font-variant-ligatures:normal;font-variant-caps:normal;font-variant-numeric:normal;font-variant-east-asian:normal;letter-spacing:0px;word-spacing:0px;fill:#fe6bbe;stroke-width:0.264582;fill-opacity:1;filter:url(#filter13)"
       x="50.42865"
       y="94.751389"
       id="text2-7-2"><tspan
         sodipodi:role="line"
         style="font-style:normal;font-variant:normal;font-weight:normal;font-stretch:normal;font-size:59.6371px;font-family:'Press Start';-inkscape-font-specification:'Press Start, Normal';font-variant-ligatures:normal;font-variant-caps:normal;font-variant-numeric:normal;font-variant-east-asian:normal;fill:#fe6bbe;stroke-width:0.264582;fill-opacity:1"
         x="50.42865"
         y="94.751389"
         id="tspan4-8-0">A.W.A.Y</tspan><tspan
         sodipodi:role="line"
         style="font-style:normal;font-variant:normal;font-weight:normal;font-stretch:normal;font-size:59.6371px;font-family:'Press Start';-inkscape-font-specification:'Press Start, Normal';font-variant-ligatures:normal;font-variant-caps:normal;font-variant-numeric:normal;font-variant-east-asian:normal;fill:#fe6bbe;stroke-width:0.264582;fill-opacity:1"
         x="50.42865"
         y="169.29776"
         id="tspan7-2" /><tspan
         sodipodi:role="line"
         style="font-style:normal;font-variant:normal;font-weight:normal;font-stretch:normal;font-size:59.6371px;font-family:'Press Start';-inkscape-font-specification:'Press Start, Normal';font-variant-ligatures:normal;font-variant-caps:normal;font-variant-numeric:normal;font-variant-east-asian:normal;fill:#fe6bbe;stroke-width:0.264582;fill-opacity:1"
         x="50.42865"
         y="243.84415"
         id="tspan6-3" /></text>
    <text
       xml:space="preserve"
       style="font-style:normal;font-variant:normal;font-weight:normal;font-stretch:normal;font-size:59.6371px;line-height:1.25;font-family:'Press Start';-inkscape-font-specification:'Press Start, Normal';font-variant-ligatures:normal;font-variant-caps:normal;font-variant-numeric:normal;font-variant-east-asian:normal;letter-spacing:0px;word-spacing:0px;fill:#ffffff;stroke-width:0.264582"
       x="50.42865"
       y="94.751389"
       id="text2-7"><tspan
         sodipodi:role="line"
         style="font-style:normal;font-variant:normal;font-weight:normal;font-stretch:normal;font-size:59.6371px;font-family:'Press Start';-inkscape-font-specification:'Press Start, Normal';font-variant-ligatures:normal;font-variant-caps:normal;font-variant-numeric:normal;font-variant-east-asian:normal;fill:#ffffff;stroke-width:0.264582"
         x="50.42865"
         y="94.751389"
         id="tspan4-8">A.W.A.Y</tspan><tspan
         sodipodi:role="line"
         style="font-style:normal;font-variant:normal;font-weight:normal;font-stretch:normal;font-size:59.6371px;font-family:'Press Start';-inkscape-font-specification:'Press Start, Normal';font-variant-ligatures:normal;font-variant-caps:normal;font-variant-numeric:normal;font-variant-east-asian:normal;fill:#ffffff;stroke-width:0.264582"
         x="50.42865"
         y="169.29776"
         id="tspan7" /><tspan
         sodipodi:role="line"
         style="font-style:normal;font-variant:normal;font-weight:normal;font-stretch:normal;font-size:59.6371px;font-family:'Press Start';-inkscape-font-specification:'Press Start, Normal';font-variant-ligatures:normal;font-variant-caps:normal;font-variant-numeric:normal;font-variant-east-asian:normal;fill:#ffffff;stroke-width:0.264582"
         x="50.42865"
         y="243.84413"
         id="tspan6" /></text>
  </g>
</svg>
